<?xml version="1.0" standalone="no"?>
<!DOCTYPE svg PUBLIC "-//W3C//DTD SVG 20010904//EN"
 "http://www.w3.org/TR/2001/REC-SVG-20010904/DTD/svg10.dtd">
<svg version="1.0" xmlns="http://www.w3.org/2000/svg"
 width="240.000000pt" height="240.000000pt" viewBox="0 0 240.000000 240.000000"
 preserveAspectRatio="xMidYMid meet">
<metadata>
Created by potrace 1.14, written by Peter Selinger 2001-2017
</metadata>
<g transform="translate(0.000000,240.000000) scale(0.100000,-0.100000)"
fill="#000000" stroke="none">
<path d="M1165 2382 c-16 -10 -70 -40 -120 -67 -49 -26 -153 -83 -230 -125
-77 -42 -171 -94 -210 -115 -38 -20 -117 -63 -175 -95 -99 -54 -155 -85 -275
-150 l-50 -27 0 -603 0 -603 200 -110 c110 -60 274 -149 365 -198 91 -50 172
-94 180 -99 8 -5 91 -50 183 -100 l168 -91 52 29 c29 16 84 46 122 67 39 21
108 59 155 85 47 26 123 67 170 92 47 25 108 58 135 73 114 63 143 79 205 113
36 19 85 46 110 60 25 14 68 37 95 52 l50 27 0 603 0 603 -365 199 c-201 110
-396 216 -435 237 -38 21 -120 66 -182 100 -62 33 -113 61 -115 61 -2 0 -16
-8 -33 -18z m398 -409 c188 -102 371 -202 407 -221 36 -19 80 -43 98 -54 l32
-20 -2 -481 -3 -480 -85 -47 c-118 -64 -671 -366 -748 -407 l-63 -35 -77 43
c-42 23 -106 58 -142 77 -36 19 -153 83 -260 142 -107 59 -231 126 -275 150
-44 23 -95 51 -113 62 l-32 20 2 481 3 480 190 104 c105 57 228 125 275 150
47 26 100 55 118 65 19 10 71 39 115 63 45 24 107 57 137 74 30 17 61 29 68
26 8 -3 168 -89 355 -192z"/>
<path d="M962 1809 c-74 -9 -156 -45 -196 -85 -50 -50 -60 -86 -61 -231 -2
-147 -9 -169 -67 -196 -19 -9 -53 -19 -76 -23 l-42 -7 0 -67 0 -68 34 -6 c45
-9 111 -58 132 -98 13 -25 18 -61 19 -153 2 -137 15 -179 67 -218 62 -47 140
-68 258 -71 l45 -1 0 60 0 59 -35 3 c-122 8 -180 28 -199 69 -6 14 -11 71 -11
128 0 131 -17 182 -82 250 -27 28 -44 52 -37 55 24 8 81 66 98 100 15 28 19
62 20 151 3 175 33 214 178 228 l68 7 1 50 c2 82 6 80 -114 64z"/>
<path d="M1325 1807 c-2 -7 -3 -34 -2 -62 l2 -50 65 -7 c85 -8 136 -31 160
-71 17 -27 20 -50 20 -150 0 -88 4 -128 16 -153 16 -32 79 -97 103 -105 7 -3
-10 -26 -37 -55 -65 -68 -82 -119 -82 -250 0 -57 -5 -114 -11 -128 -17 -35
-71 -58 -158 -65 l-76 -6 0 -60 0 -60 68 2 c137 4 245 54 283 129 15 31 19 63
20 159 1 92 5 128 18 153 20 38 90 92 121 92 11 0 26 5 33 12 17 17 16 138 0
139 -69 4 -133 31 -155 66 -12 18 -16 55 -17 156 -2 114 -5 137 -24 172 -37
69 -76 102 -144 124 -74 24 -197 35 -203 18z"/>
<path d="M1145 1441 c-4 -7 -7 -58 -6 -91 1 -24 4 -26 61 -27 l60 -1 0 62 0
63 -56 0 c-30 -1 -57 -3 -59 -6z"/>
<path d="M1140 1019 c0 -56 1 -59 25 -59 31 0 31 -8 0 -54 -21 -30 -22 -38
-10 -42 19 -8 60 18 82 52 19 30 31 98 23 134 -5 23 -10 25 -62 27 l-58 2 0
-60z"/>
</g>
</svg>
